<svg width="60" height="60" viewBox="0 0 60 60" fill="none" xmlns="http://www.w3.org/2000/svg">
<mask id="mask0_17:2" style="mask-type:alpha" maskUnits="userSpaceOnUse" x="0" y="0" width="60" height="60">
<path fill-rule="evenodd" clip-rule="evenodd" d="M30 60C46.5685 60 60 46.5685 60 30C60 13.4315 46.5685 0 30 0C13.4315 0 0 13.4315 0 30C0 46.5685 13.4315 60 30 60Z" fill="white"/>
</mask>
<g mask="url(#mask0_17:2)">
<path d="M2.71398 22.875H56.536" stroke="#42A5F5" stroke-width="4" stroke-linecap="square"/>
<path d="M2.71398 38.625H56.536" stroke="#42A5F5" stroke-width="4" stroke-linecap="square"/>
<path d="M29.25 4.5C29.25 4.5 19.2878 16.0775 19.5035 30.75C19.7191 45.4225 29.25 55.5 29.25 55.5" stroke="#42A5F5" stroke-width="4" stroke-linecap="round" stroke-linejoin="round"/>
<path d="M30 4.5C30 4.5 39.9622 16.0775 39.7465 30.75C39.5309 45.4225 30 55.5 30 55.5" stroke="#42A5F5" stroke-width="4" stroke-linecap="round" stroke-linejoin="round"/>
</g>
</svg>
